#!OML:ASF E:/inclinewalkrobotboard/Project1/Captureday1/Session1/subject1.ASF
:FULLY-SPECIFIED
:DEGREES
126
root 0 0 0 1.0527931181992938 -3.6798166233959186 1.8629038574829728
lowerback 11.924764953281306 0.8571193049297693 -0.058248999683415265
upperback -4.224165786175934 1.0868987863380917 -0.5564816213472175
thorax -11.29786289952288 0.4962485935814175 -0.8002221284008778
lowerneck -5.666255943643689 1.44601524672106 4.565838626368494
upperneck 18.080385433414616 2.8822764564115975 -8.319475741139152
head 6.588098183517555 1.0475768002766355 -3.2219108264851837
rclavicle -8.96014269364269E-16 -3.4379287109466696E-16
rhumerus 20.16053892858333 14.710317242888664 -48.13986350044577
rradius 72.54533070677107
rwrist 26.736925750668494
rhand -34.75578545502938 -57.39299040100843
rfingers 7.125020000000038
rthumb -7.917091474359131 -87.30774830088062
lclavicle 9.031441864098772E-16 -1.7502155874521783E-15
lhumerus 20.851530149940565 -12.752099492818983 45.28129238063991
lradius 69.94644455533476
lwrist -22.275577055834326
lhand -44.774657068156245 -69.7236169418656
lfingers 7.125020000000029
lthumb -17.56605926136395 -40.52538464057628
rfemur -24.89441489511032 -2.2122878637908827 17.208383142257883
rtibia 54.048781683121526
rfoot -29.079465610660083 -16.732903106897254
rtoes -17.671883162530563
lfemur -26.6769842378681 2.405953568565358 -18.294745904638113
ltibia 54.16623786697573
lfoot -31.06094466189651 -3.5287668438765882
ltoes -19.631756951297184
127
root 0 0 0 1.0526354569824132 -3.6801050309033325 1.8628679768841856
lowerback 11.924759643419183 0.8570916461552837 -0.058183696696219506
upperback -4.224066041721414 1.0868748725293027 -0.5564232316658555
thorax -11.297744988841485 0.4962360332566267 -0.8001884430708865
lowerneck -5.665703469935511 1.4459372448787475 4.565902113776984
upperneck 18.080045221397242 2.882193239995427 -8.319707754626716
head 6.587894652194769 1.0475430015387104 -3.2220023609211017
rclavicle -8.948943175966594E-16 -3.439618981834485E-16
rhumerus 20.160747237810604 14.710568638802513 -48.139773746290444
rradius 72.54547015669652
rwrist 26.73685601100428
rhand -34.7553908553053 -57.39243642800955
rfingers 7.125020000000038
rthumb -7.91671272824056 -87.30719348760451
lclavicle 9.044304368469495E-16 -1.750262986858942E-15
lhumerus 20.85172278677368 -12.752435505996884 45.28098510001607
lradius 69.94667793397323
lwrist -22.275610304593425
lhand -44.77450830428274 -69.72267540510445
lfingers 7.125020000000029
lthumb -17.565914197456244 -40.52442914840509
rfemur -24.89443215723454 -2.212288205430235 17.20838833019588
rtibia 54.04879683225896
rfoot -29.079496076239128 -16.732891238375643
rtoes -17.67187488278174
lfemur -26.676730820813866 2.405987590313339 -18.294731737835267
ltibia 54.16613108661431
lfoot -31.060888036349706 -3.5286981140244413
ltoes -19.632142393669454
128
root 0 0 0 1.0534963989237314 -3.6785035740067342 1.8630648179654188
lowerback 11.924846112934764 0.8572420156472217 -0.058465517345559576
upperback -4.224560313635808 1.08701122717368 -0.5567227950641707
thorax -11.298353246557749 0.49630644271879515 -0.8003960497370594
lowerneck -5.668367213066643 1.4462624172100607 4.565565205237966
upperneck 18.08160361288901 2.882498820021282 -8.31856043228022
head 6.588848036328712 1.0476688829816003 -3.2215561885957142
rclavicle -9.066149369282502E-16 -3.349313459886261E-16
rhumerus 20.16102889007019 14.709918741190204 -48.13952439329311
rradius 72.54559250997205
rwrist 26.737506341974534
rhand -34.75645768646289 -57.3941068799065
rfingers 7.125020000000038
rthumb -7.91779130902758 -87.30821233222495
lclavicle 8.958096027468089E-16 -1.7439036950182498E-15
lhumerus 20.8518564299587 -12.752367403394551 45.28181121827548
lradius 69.94663074163651
lwrist -22.275089531655265
lhand -44.77508587647891 -69.72474740937592
lfingers 7.1250200000000286
lthumb -17.566553901823443 -40.52661464403119
rfemur -24.893721322910004 -2.211787700509332 17.207458595231707
rtibia 54.0490520414275
rfoot -29.0788744426703 -16.733929484602754
rtoes -17.67245473543142
lfemur -26.678515911458796 2.406230572495435 -18.294783315843468
ltibia 54.16357465987683
lfoot -31.063043894693557 -3.525960197487838
ltoes -19.632516353885286
129
root 0 0 0 1.0530992730122795 -3.6792642636177098 1.8629764638099842
lowerback 11.924765340292536 0.8571743657542452 -0.05837477058479104
upperback -4.224357087065885 1.0869467844880047 -0.5565975668836738
thorax -11.29808340075811 0.496273942181011 -0.8002901536864921
lowerneck -5.667352009213527 1.4461736554406532 4.565730220129976
upperneck 18.081062193933356 2.882449935169669 -8.319036081155721
head 6.588502820374652 1.0476468811364983 -3.2217384517071346
rclavicle -8.969550611830117E-16 -3.4403126302610284E-16
rhumerus 20.16028980487016 14.710001507090105 -48.139994697697375
rradius 72.54515037707226
rwrist 26.737013981126314
rhand -34.75628732383594 -57.39366038838865
rfingers 7.125020000000038
rthumb -7.917567311761449 -87.30841113667704
lclavicle 9.025125990011487E-16 -1.7504145805528853E-15
lhumerus 20.851378080005386 -12.751771238686793 45.281644262300595
lradius 69.94616200492094
lwrist -22.27547505906067
lhand -44.774824362766076 -69.72473466281653
lfingers 7.125020000000029
lthumb -17.566216249758668 -40.52650861358755
rfemur -24.89443164783392 -2.212263887414706 17.208279223754793
rtibia 54.04865458557411
rfoot -29.07957459716647 -16.732966553358935
rtoes -17.67209850154
lfemur -26.67699090054391 2.405863582900146 -18.2947748518096
ltibia 54.165033335439816
lfoot -31.061617519623134 -3.52833673515745
ltoes -19.632184019987346
130
root 0 0 0 1.0529764888610607 -3.6794788669835494 1.8629497702716398
lowerback 11.92476673132566 0.8571525686595096 -0.05832422598961132
upperback -4.224281857031366 1.0869277647463365 -0.5565521658483773
thorax -11.297997518513862 0.4962638716770073 -0.8002642548529022
lowerneck -5.666908827747619 1.4461097872354176 4.565775589377738
upperneck 18.08078939253171 2.8823795338204636 -8.319214957331235
head 6.588339431669216 1.0476184208784702 -3.2218088097667015
rclavicle -8.965328787081966E-16 -3.433558675874016E-16
rhumerus 20.16029134763515 14.710049243635586 -48.13998912472275
rradius 72.54516598112085
rwrist 26.736963880891707
rhand -34.756171064336115 -57.39344852503659
rfingers 7.125020000000038
rthumb -7.917459071692881 -87.30821580418122
lclavicle 9.023771161160007E-16 -1.7498610409106766E-15
lhumerus 20.851395842603857 -12.751895005130455 45.28155095032466
lradius 69.94628858031861
lwrist -22.27552178266011
lhand -44.7747712524673 -69.7242655063143
lfingers 7.125020000000029
lthumb -17.56616688961703 -40.52604678665101
rfemur -24.894400992819122 -2.2122878252717193 17.208361750262654
rtibia 54.04870979021304
rfoot -29.07948295062545 -16.732920346892136
rtoes -17.67200571150765
lfemur -26.677023573025558 2.405853759821191 -18.294746781268543
ltibia 54.165994938292535
lfoot -31.061179436469086 -3.5287561080809566
ltoes -19.631823471788437
131
root 0 0 0 1.0527631483986175 -3.6798714374487607 1.8628972482515134
lowerback 11.92476365421849 0.8571140701620655 -0.05823668177753888
upperback -4.224146941760619 1.0868942440682554 -0.5564706431081671
thorax -11.297840450370606 0.49624621245782297 -0.8002157823028003
lowerneck -5.6661513929869525 1.4460006505655596 4.56585105798538
upperneck 18.080321544946667 2.8822609986037326 -8.319520045227684
head 6.5880598354727145 1.0475705163677653 -3.221928327360803
rclavicle -8.957628042987601E-16 -3.4381104572592417E-16
rhumerus 20.160582101322255 14.710369708897272 -48.13984687853541
rradius 72.54535995251284
rwrist 26.736909791482063
rhand -34.75570550725903 -57.392876056921196
rfingers 7.125020000000038
rthumb -7.917014665499742 -87.30763328568516
lclavicle 9.034375297049842E-16 -1.750209659765064E-15
lhumerus 20.851571230833663 -12.752171649401305 45.28122651258478
lradius 69.94649397982991
lwrist -22.27558377964399
lhand -44.77462437072412 -69.72341212521982
lfingers 7.125020000000029
lthumb -17.566027330695725 -40.52517631982559
rfemur -24.89441631751276 -2.212287320987848 17.20838386892328
rtibia 54.048780721274994
rfoot -29.079469984149355 -16.732899325609175
rtoes -17.67188681308617
lfemur -26.676913203233013 2.4059558398246113 -18.29474190481799
ltibia 54.16619748961454
lfoot -31.060940572107235 -3.5287539325401207
ltoes -19.631866019897735
